<?xml version="1.0" encoding="utf-8"?>
<!-- Generator: Adobe Illustrator 27.9.2, SVG Export Plug-In . SVG Version: 6.00 Build 0)  -->
<svg version="1.1" xmlns="http://www.w3.org/2000/svg" xmlns:xlink="http://www.w3.org/1999/xlink" x="0px" y="0px"
	 viewBox="0 0 1024 1024" style="enable-background:new 0 0 1024 1024;" xml:space="preserve">
<style type="text/css">
	.st0{display:none;}
	.st1{display:inline;fill:#FFFFFF;stroke:#000000;stroke-width:12;stroke-miterlimit:10;}
	.st2{display:inline;}
	.st3{fill:#FFFFFF;}
	.st4{fill:none;stroke:#000000;stroke-width:12;stroke-miterlimit:10;}
	.st5{fill:none;stroke:#000000;stroke-width:14;stroke-miterlimit:10;}
</style>
<g id="Layer_1" class="st0">
	<path class="st1" d="M870.89,745.24c4.17,84.38-52.92,106.1-182.13,112.49c-120.48,5.96-233.11-34.46-235.89-90.63
		c-2.84-57.41,98.92-106.49,225.82-112.77C807.9,647.94,866.31,652.74,870.89,745.24z"/>
	<path class="st1" d="M868.88,746.05c3.19,64.56-54.12,81.84-183.33,88.23c-120.48,5.96-232.57-23.68-234.7-66.65
		c-2.17-43.92,100.1-82.67,227-88.95C807.06,672.29,865.38,675.29,868.88,746.05z"/>
	<path class="st1" d="M869.98,744.71c2.17,43.78-55.38,56.43-184.59,62.82c-120.48,5.96-232.02-12.39-233.46-41.53
		c-1.47-29.79,101.33-57.73,228.24-64.01C809.38,695.6,867.61,696.72,869.98,744.71z"/>
	<path class="st1" d="M867.55,742.88c0.93,18.85-56.89,25.93-186.1,32.33c-120.48,5.96-231.35,1.17-231.97-11.38
		C448.85,751,552.3,736.04,679.2,729.76C808.41,723.37,866.53,722.21,867.55,742.88z"/>
	<g class="st2">
		<path class="st3" d="M213.33,822.71c-24.58,0-44.93-19.26-46.32-43.84c-0.73-12.84,3.73-25.08,12.54-34.45
			c8.81-9.37,20.75-14.57,33.61-14.63l235.52-1.18c4.81,0,8.72,3.73,8.96,8.48l2.82,56.97c0.24,4.84-3.36,8.94-8.19,9.34
			l-235.1,19.15C215.9,822.66,214.6,822.71,213.33,822.71z"/>
		<path d="M448.73,735.62c1.03,0,1.87,0.8,1.92,1.83l2.82,56.97c0.05,1.04-0.72,1.93-1.77,2.01l-235.1,19.15
			c-1.09,0.09-2.18,0.13-3.27,0.13c-20.87,0-38.15-16.35-39.33-37.23c-0.62-10.91,3.17-21.3,10.65-29.26
			c7.48-7.96,17.62-12.37,28.55-12.43L448.73,735.62L448.73,735.62 M448.73,721.62c-0.03,0-0.05,0-0.08,0l-235.52,1.18
			c-30.6,0.15-54.83,25.92-53.1,56.47v0c1.61,28.52,25.25,50.44,53.31,50.44c1.46,0,2.93-0.06,4.4-0.18l235.1-19.15
			c8.57-0.7,15.04-8.07,14.61-16.66l-2.82-56.97C464.21,728.27,457.21,721.62,448.73,721.62L448.73,721.62z"/>
	</g>
	<g class="st2">
		<g>
			<path class="st3" d="M254.35,788.59c-13.46,0-24.38-10.54-24.86-24l-18.85-525.87c-0.24-6.65,2.13-12.99,6.66-17.85
				c4.53-4.87,10.69-7.68,17.33-7.92l85.16-3.05c0.3-0.01,0.61-0.02,0.91-0.02c13.46,0,24.38,10.54,24.86,24l18.85,525.87
				c0.24,6.65-2.13,12.99-6.66,17.85c-4.53,4.87-10.69,7.68-17.33,7.92l-85.16,3.05C254.95,788.59,254.65,788.59,254.35,788.59z"/>
			<path d="M320.7,216.88c9.67,0,17.52,7.58,17.86,17.25l18.85,525.87c0.17,4.78-1.53,9.33-4.78,12.83
				c-3.26,3.5-7.68,5.52-12.46,5.69l-85.15,3.05c-0.22,0.01-0.44,0.01-0.66,0.01c-9.67,0-17.52-7.58-17.86-17.25l-18.85-525.87
				c-0.17-4.78,1.53-9.33,4.78-12.83c3.26-3.5,7.68-5.52,12.46-5.69l85.15-3.05C320.26,216.88,320.48,216.88,320.7,216.88
				L320.7,216.88 M320.7,202.88c-0.39,0-0.77,0.01-1.16,0.02l-85.16,3.05c-17.6,0.63-31.36,15.41-30.73,33.02l18.85,525.87
				c0.62,17.21,14.77,30.75,31.85,30.75c0.39,0,0.77-0.01,1.16-0.02l85.16-3.05c17.6-0.63,31.36-15.41,30.73-33.02l-18.85-525.87
				C351.93,216.42,337.79,202.88,320.7,202.88L320.7,202.88z"/>
		</g>
		<g>
			<path class="st3" d="M258.56,123.96c-0.31-8.54,6.39-15.74,14.94-16.04c0.19-0.01,0.38-0.01,0.57-0.01
				c8.38,0,15.18,6.56,15.48,14.94l3.01,84.02l-30.98,1.11L258.56,123.96z"/>
			<path d="M274.07,114.91c4.59,0,8.32,3.6,8.48,8.2l2.76,77.02l-16.99,0.61l-2.76-77.02c-0.08-2.27,0.73-4.43,2.27-6.1
				c1.55-1.66,3.65-2.62,5.92-2.7C273.86,114.91,273.96,114.91,274.07,114.91 M274.07,100.91c-0.27,0-0.55,0-0.82,0.01h0
				c-12.42,0.45-22.12,10.87-21.68,23.29l3.26,91.01l44.97-1.61l-3.26-91.01C296.1,110.46,286.12,100.91,274.07,100.91
				L274.07,100.91z"/>
		</g>
		<g>
			<path class="st3" d="M300.99,890.77c-8.38,0-15.18-6.57-15.48-14.95l-3.01-84.02l30.98-1.11l3.01,84.02
				c0.31,8.54-6.39,15.74-14.94,16.05C301.36,890.76,301.18,890.77,300.99,890.77C300.99,890.77,300.99,890.77,300.99,890.77z"/>
			<path d="M306.73,797.94l2.76,77.02c0.17,4.68-3.51,8.63-8.19,8.8c-0.11,0-0.21,0.01-0.32,0.01c-4.59,0-8.32-3.6-8.48-8.2
				l-2.76-77.02L306.73,797.94 M320.22,783.45l-44.97,1.61l3.26,91.01c0.44,12.14,10.42,21.69,22.47,21.69c0.27,0,0.55,0,0.82-0.01
				h0c12.42-0.45,22.12-10.87,21.68-23.29L320.22,783.45L320.22,783.45z"/>
		</g>
	</g>
</g>
<g id="Layer_1_copy">
	<g>
		<path class="st4" d="M465.65,736.19c33.39-30,115.14-53.25,210.93-57.99c118.5-5.86,177.37-3.82,189.01,51.15
			c1.81,4.37,2.85,9.31,3.12,14.88c0.22,4.4-0.18,8.49-1.18,12.29c-3.76,55.61-61.68,71.27-183.26,77.28
			c-93.85,4.64-182.6-12.32-218.25-40.35"/>
		<path class="st4" d="M464.75,797.14c33.37,39.52,125.49,64.93,222.74,60.11c129.21-6.39,186.31-28.1,182.13-112.49
			c-4.58-92.49-62.99-97.3-192.2-90.91c-99.18,4.91-182.99,35.95-213.52,76.69"/>
		<path class="st4" d="M466.45,753.37c35.02-9.87,116.7-19.4,211.48-24.09c129.21-6.39,187.32-7.55,188.35,13.12
			c0.93,18.85-56.89,25.93-186.1,32.33c-93.67,4.63-181.52,2.77-216.27-4.19"/>
		<path class="st4" d="M464.6,781.97c33.65,19.2,123.75,29.82,219.53,25.08c116.21-5.75,174.44-16.56,183.41-50.54
			c0.24-3.49,0.27-7.13,0.08-10.95c-0.29-5.86-0.97-11.25-2.02-16.22c-13.75-33.26-72.49-33.48-186.69-27.83
			c-96.17,4.76-178.48,21.95-212.08,42.97"/>
	</g>
	<path class="st5" d="M281.71,824.32l-63.98,5.21c-29.94,2.44-56.02-20.27-57.71-50.26l0,0c-1.73-30.55,22.5-56.32,53.1-56.47
		l12.88-0.06"/>
	<path class="st5" d="M281.71,824.32"/>
	<path class="st5" d="M362.88,722.05l85.77-0.43c8.52-0.04,15.56,6.63,15.98,15.14l2.82,56.97c0.42,8.59-6.04,15.96-14.61,16.66
		l-137.22,11.18"/>
	<g>
		<g>
			<path d="M320.7,216.88c9.67,0,17.52,7.58,17.86,17.25l18.85,525.87c0.17,4.78-1.53,9.33-4.78,12.83
				c-3.26,3.5-7.68,5.52-12.46,5.69l-85.15,3.05c-0.22,0.01-0.44,0.01-0.66,0.01c-9.67,0-17.52-7.58-17.86-17.25l-18.85-525.87
				c-0.17-4.78,1.53-9.33,4.78-12.83c3.26-3.5,7.68-5.52,12.46-5.69l85.15-3.05C320.26,216.88,320.48,216.88,320.7,216.88
				L320.7,216.88 M320.7,202.88c-0.39,0-0.77,0.01-1.16,0.02l-85.16,3.05c-17.6,0.63-31.36,15.41-30.73,33.02l18.85,525.87
				c0.62,17.21,14.77,30.75,31.85,30.75c0.39,0,0.77-0.01,1.16-0.02l85.16-3.05c17.6-0.63,31.36-15.41,30.73-33.02l-18.85-525.87
				C351.93,216.42,337.79,202.88,320.7,202.88L320.7,202.88z"/>
		</g>
		<g>
			<path d="M274.07,114.91c4.59,0,8.32,3.6,8.48,8.2l2.76,77.02l-16.99,0.61l-2.76-77.02c-0.08-2.27,0.73-4.43,2.27-6.1
				c1.55-1.66,3.65-2.62,5.92-2.7C273.86,114.91,273.96,114.91,274.07,114.91 M274.07,100.91c-0.27,0-0.55,0-0.82,0.01h0
				c-12.42,0.45-22.12,10.87-21.68,23.29l3.26,91.01l44.97-1.61l-3.26-91.01C296.1,110.46,286.12,100.91,274.07,100.91
				L274.07,100.91z"/>
		</g>
		<g>
			<path d="M306.73,797.94l2.76,77.02c0.17,4.68-3.51,8.63-8.19,8.8c-0.11,0-0.21,0.01-0.32,0.01c-4.59,0-8.32-3.6-8.48-8.2
				l-2.76-77.02L306.73,797.94 M320.22,783.45l-44.97,1.61l3.26,91.01c0.44,12.14,10.42,21.69,22.47,21.69c0.27,0,0.55,0,0.82-0.01
				h0c12.42-0.45,22.12-10.87,21.68-23.29L320.22,783.45L320.22,783.45z"/>
		</g>
	</g>
</g>
</svg>
