<?xml version="1.0" encoding="UTF-8"?>
<svg id="Layer_1" data-name="Layer 1" xmlns="http://www.w3.org/2000/svg" viewBox="0 0 724.16 796.86">
  <defs>
    <style>
      .cls-1 {
        stroke: #fff;
        stroke-miterlimit: 10;
        stroke-width: 12px;
      }

      .cls-1, .cls-2 {
        fill: #fff;
      }

      .cls-2 {
        stroke-width: 0px;
      }
    </style>
  </defs>
  <path class="cls-1" d="M717.95,644.33c4.17,84.38-52.92,106.1-182.13,112.49-120.48,5.96-233.11-34.46-235.89-90.63-2.84-57.41,98.92-106.49,225.82-112.77,129.21-6.39,187.62-1.59,192.2,90.91Z"/>
  <path class="cls-1" d="M715.94,645.14c3.19,64.56-54.12,81.84-183.33,88.23-120.48,5.96-232.57-23.68-234.7-66.65s100.1-82.67,227-88.95c129.21-6.39,187.53-3.39,191.03,67.37Z"/>
  <path class="cls-1" d="M717.04,643.8c2.17,43.78-55.38,56.43-184.59,62.82-120.48,5.96-232.02-12.39-233.46-41.53s101.33-57.73,228.24-64.01c129.21-6.39,187.44-5.28,189.81,42.71Z"/>
  <path class="cls-1" d="M714.61,641.97c.93,18.85-56.89,25.93-186.1,32.33-120.48,5.96-231.35,1.17-231.97-11.38s102.82-27.78,229.72-34.06c129.21-6.39,187.32-7.55,188.35,13.12Z"/>
  <g>
    <path class="cls-2" d="M60.4,721.8c-24.58,0-44.93-19.26-46.32-43.84-.73-12.84,3.73-25.08,12.54-34.45,8.81-9.37,20.75-14.57,33.61-14.63l235.52-1.18c4.81,0,8.72,3.73,8.96,8.48l2.82,56.97c.24,4.84-3.36,8.94-8.19,9.34l-235.1,19.15c-1.27.1-2.56.16-3.83.16Z"/>
    <path class="cls-2" d="M295.79,634.71c1.03,0,1.87.8,1.92,1.83l2.82,56.97c.05,1.04-.72,1.93-1.77,2.01l-235.1,19.15c-1.09.09-2.18.13-3.27.13-20.87,0-38.15-16.35-39.33-37.23-.62-10.91,3.17-21.3,10.65-29.26,7.48-7.96,17.62-12.37,28.55-12.43l235.52-1.18h0M295.79,620.71s-.05,0-.08,0l-235.52,1.18c-30.6.15-54.83,25.92-53.1,56.47h0c1.61,28.52,25.25,50.44,53.31,50.44,1.46,0,2.93-.06,4.4-.18l235.1-19.15c8.57-.7,15.04-8.07,14.61-16.66l-2.82-56.97c-.42-8.48-7.42-15.14-15.9-15.14h0Z"/>
  </g>
  <g>
    <g>
      <path class="cls-2" d="M101.41,694.19c-16.97,0-30.75-13.3-31.35-30.27L51.21,138.04c-.3-8.38,2.68-16.38,8.39-22.51,5.71-6.14,13.48-9.68,21.86-9.98l85.16-3.05c.38-.01.76-.02,1.14-.02,16.97,0,30.75,13.3,31.35,30.27l18.85,525.87c.3,8.38-2.68,16.38-8.39,22.51-5.71,6.14-13.48,9.68-21.86,9.98l-85.16,3.05c-.38.01-.76.02-1.15.02Z"/>
      <path class="cls-2" d="M167.76,102.97c16.7,0,30.26,13.08,30.85,29.79l18.85,525.87c.61,17.02-12.74,31.37-29.77,31.98l-85.16,3.05c-.38.01-.75.02-1.13.02-16.7,0-30.26-13.08-30.85-29.79L51.71,138.03c-.61-17.02,12.74-31.37,29.77-31.98l85.16-3.05c.38-.01.75-.02,1.13-.02h0M167.76,101.97c-.39,0-.77,0-1.16.02l-85.16,3.05c-17.6.63-31.36,15.41-30.73,33.02l18.85,525.87c.62,17.21,14.77,30.75,31.85,30.75.39,0,.77,0,1.16-.02l85.16-3.05c17.6-.63,31.36-15.41,30.73-33.02l-18.85-525.87c-.62-17.21-14.77-30.75-31.85-30.75h0Z"/>
    </g>
    <g>
      <path class="cls-2" d="M99.13,23.29c-.43-12.12,9.08-22.34,21.2-22.77.27,0,.54-.01.8-.01,11.89,0,21.55,9.32,21.97,21.21l3.24,90.51-43.97,1.58-3.24-90.51Z"/>
      <path class="cls-2" d="M121.13,1c11.62,0,21.06,9.11,21.47,20.73l3.23,90.01-42.97,1.54-3.23-90.01c-.21-5.74,1.84-11.21,5.75-15.42,3.91-4.2,9.23-6.63,14.97-6.84.26,0,.52-.01.78-.01M121.13,0c-.27,0-.55,0-.82.01h0c-12.42.45-22.12,10.87-21.68,23.29l3.26,91.01,44.97-1.61-3.26-91.01C143.16,9.55,133.18,0,121.13,0h0Z"/>
    </g>
    <g>
      <path class="cls-2" d="M148.05,796.36c-11.9,0-21.55-9.32-21.97-21.21l-3.24-90.51,43.97-1.58,3.24,90.51c.43,12.12-9.08,22.34-21.2,22.77-.27,0-.53.01-.8.01h0Z"/>
      <path class="cls-2" d="M166.32,683.57l3.23,90.01c.42,11.85-8.87,21.83-20.72,22.26-.26,0-.52.01-.78.01-11.62,0-21.06-9.11-21.47-20.73l-3.23-90.01,42.97-1.54M167.28,682.54l-44.97,1.61,3.26,91.01c.44,12.14,10.42,21.69,22.47,21.69.27,0,.55,0,.82-.01h0c12.42-.45,22.12-10.87,21.68-23.29l-3.26-91.01h0Z"/>
    </g>
  </g>
</svg>