<?xml version="1.0" encoding="UTF-8"?>
<svg id="Layer_1_copy" data-name="Layer 1 copy" xmlns="http://www.w3.org/2000/svg" viewBox="0 0 729.89 796.86">
  <defs>
    <style>
      .cls-1 {
        fill: none;
        stroke: #fff;
        stroke-miterlimit: 10;
        stroke-width: 20px;
      }

      .cls-2 {
        fill: #fff;
        stroke-width: 0px;
      }
    </style>
  </defs>
  <path class="cls-1" d="M315.71,639.03c33.39-25.48,115.14-45.22,210.93-49.24,118.5-4.98,177.37-3.24,189.01,43.43,1.81,3.71,2.85,7.9,3.12,12.64.22,3.74-.18,7.21-1.18,10.43-3.76,47.22-61.68,60.52-183.26,65.63-93.85,3.94-182.6-10.46-218.25-34.27"/>
  <path class="cls-1" d="M314.81,696.23c33.37,39.52,125.49,64.93,222.74,60.11,129.21-6.39,186.31-28.1,182.13-112.49-4.58-92.49-62.99-97.3-192.2-90.91-99.18,4.91-182.99,35.95-213.52,76.69"/>
  <path class="cls-1" d="M319.18,658.05c35.02-9.57,116.7-18.81,211.48-23.36,129.21-6.2,187.32-7.32,188.35,12.72.93,18.28-56.89,25.15-186.1,31.34-93.67,4.49-181.52,2.68-216.27-4.06"/>
  <path class="cls-1" d="M131.77,723.41l-63.98,5.21c-29.94,2.44-56.02-20.27-57.71-50.26h0c-1.73-30.55,22.5-56.32,53.1-56.47l12.88-.06"/>
  <path class="cls-1" d="M212.94,621.14l85.77-.43c8.52-.04,15.56,6.63,15.98,15.14l2.82,56.97c.42,8.59-6.04,15.96-14.61,16.66l-137.22,11.18"/>
  <g>
    <path class="cls-2" d="M170.76,121.97c6.42,0,11.64,5.04,11.87,11.47l18.85,525.87c.11,3.18-1.02,6.2-3.18,8.53-2.16,2.33-5.11,3.67-8.28,3.78l-85.15,3.05c-.15,0-.3,0-.45,0-6.42,0-11.64-5.04-11.87-11.47l-18.85-525.87c-.11-3.18,1.02-6.2,3.18-8.53,2.16-2.33,5.11-3.67,8.28-3.78l85.16-3.05c.15,0,.3,0,.44,0h0M170.76,101.97c-.39,0-.77,0-1.16.02l-85.16,3.05c-17.6.63-31.36,15.41-30.73,33.02l18.85,525.87c.62,17.21,14.77,30.75,31.85,30.75.39,0,.77,0,1.16-.02l85.16-3.05c17.6-.63,31.36-15.41,30.73-33.02l-18.85-525.87c-.62-17.21-14.77-30.75-31.85-30.75h0Z"/>
    <path class="cls-2" d="M124.13,20c1.32,0,2.44,1.08,2.48,2.41l2.55,71.03-5,.18-2.55-71.03c-.02-.69.2-1.29.67-1.79.47-.5,1.05-.77,1.74-.8h.1M124.13,0c-.27,0-.55,0-.82.01h0c-12.42.45-22.12,10.87-21.68,23.29l3.26,91.01,44.97-1.61-3.26-91.01c-.44-12.14-10.42-21.69-22.47-21.69h0Z"/>
    <path class="cls-2" d="M151.01,703.24l2.55,71.03c.02.69-.2,1.29-.67,1.79-.47.5-1.05.77-1.74.8h-.1c-1.32,0-2.44-1.08-2.48-2.41l-2.55-71.03,5-.18M170.28,682.54l-44.97,1.61,3.26,91.01c.44,12.14,10.42,21.69,22.47,21.69.27,0,.55,0,.82-.01h0c12.42-.45,22.12-10.87,21.68-23.29l-3.26-91.01h0Z"/>
  </g>
</svg>