<?xml version="1.0" encoding="utf-8"?>
<!-- Generator: Adobe Illustrator 28.3.0, SVG Export Plug-In . SVG Version: 6.00 Build 0)  -->
<svg version="1.1" id="Layer_1" xmlns="http://www.w3.org/2000/svg" xmlns:xlink="http://www.w3.org/1999/xlink" x="0px" y="0px"
	 viewBox="0 0 2187.9 2200" style="enable-background:new 0 0 2187.9 2200;" xml:space="preserve">
<style type="text/css">
	.st0{fill:#FFFFFF;}
</style>
<g id="Regular-S" transform="matrix(1 0 0 1 1403.36 696)">
	<path class="st0" d="M-1394.8,201c0,490.5,398.3,887.5,888.9,887.5c188.7,0,362-58.7,505.9-159.3l519.9,521.3
		c29.3,28,65.7,40.5,103.4,40.5c81.1,0,139.8-61.5,139.8-142.6c0-39.1-15.4-74.1-39.1-100.6L206.8,729.3
		C317.2,581.2,381.5,399.5,381.5,201c0-490.6-396.9-888.9-887.5-888.9C-996.5-687.8-1394.8-289.5-1394.8,201z M-1179.6,201
		c0-373.2,300.5-673.6,673.6-673.6c371.8,0,673.6,300.5,673.6,673.6c0,371.8-301.9,673.6-673.6,673.6
		C-879.1,874.7-1179.6,572.8-1179.6,201z"/>
</g>
</svg>
